<svg width="56" height="56" viewBox="0 0 56 56" fill="none" xmlns="http://www.w3.org/2000/svg">
<rect width="56" height="56" rx="28" fill="#12132D" fill-opacity="0.03"/>
<rect x="0.5" y="0.5" width="55" height="55" rx="27.5" stroke="#030712" stroke-opacity="0.1"/>
<path d="M32.862 20.487L34.549 18.799C34.9007 18.4473 35.3777 18.2498 35.875 18.2498C36.3723 18.2498 36.8493 18.4473 37.201 18.799C37.5527 19.1507 37.7502 19.6277 37.7502 20.125C37.7502 20.6223 37.5527 21.0993 37.201 21.451L22.832 35.82C22.3033 36.3484 21.6514 36.7367 20.935 36.95L18.25 37.75L19.05 35.065C19.2633 34.3486 19.6516 33.6967 20.18 33.168L32.863 20.487H32.862ZM32.862 20.487L35.5 23.125" stroke="#12132D" stroke-opacity="0.6" stroke-width="1.5" stroke-linecap="round" stroke-linejoin="round"/>
</svg>
