<svg width="56" height="56" viewBox="0 0 56 56" fill="none" xmlns="http://www.w3.org/2000/svg">
<rect width="56" height="56" rx="28" fill="#12132D" fill-opacity="0.03"/>
<rect x="0.5" y="0.5" width="55" height="55" rx="27.5" stroke="#030712" stroke-opacity="0.1"/>
<path d="M34 23.5V26.5M34 26.5V29.5M34 26.5H37M34 26.5H31M28.75 22.375C28.75 23.2701 28.3944 24.1285 27.7615 24.7615C27.1285 25.3944 26.2701 25.75 25.375 25.75C24.4799 25.75 23.6214 25.3944 22.9885 24.7615C22.3556 24.1285 22 23.2701 22 22.375C22 21.4799 22.3556 20.6214 22.9885 19.9885C23.6214 19.3556 24.4799 19 25.375 19C26.2701 19 27.1285 19.3556 27.7615 19.9885C28.3944 20.6214 28.75 21.4799 28.75 22.375ZM19 35.235V35.125C19 33.4342 19.6716 31.8127 20.8672 30.6172C22.0627 29.4216 23.6842 28.75 25.375 28.75C27.0658 28.75 28.6873 29.4216 29.8828 30.6172C31.0784 31.8127 31.75 33.4342 31.75 35.125V35.234C29.8255 36.3931 27.6206 37.0038 25.374 37C23.043 37 20.862 36.355 19 35.234V35.235Z" stroke="#12132D" stroke-opacity="0.6" stroke-width="1.5" stroke-linecap="round" stroke-linejoin="round"/>
</svg>
